#N canvas 199 209 450 300 10;
#X obj 8 35 spigot 1;
#N canvas 271 82 1262 402 sensorRecieve 1;
#X obj 39 38 oscparse;
#X obj 39 62 list trim;
#X obj 39 16 netreceive -u -b 8000;
#X obj 39 123 outlet;
#X obj 39 86 route ranger;
#X connect 0 0 1 0;
#X connect 1 0 4 0;
#X connect 2 0 0 0;
#X connect 4 0 3 0;
#X restore 8 7 pd sensorRecieve;
#X obj 8 62 unpack 1 1 1 1 1 1;
#X floatatom 8 96 5 0 0 0 - - -, f 5;
#X floatatom 32 120 5 0 0 0 - - -, f 5;
#X floatatom 57 97 5 0 0 0 - - -, f 5;
#X floatatom 79 127 5 0 0 0 - - -, f 5;
#X floatatom 106 154 5 0 0 0 - - -, f 5;
#X floatatom 131 105 5 0 0 0 - - -, f 5;
#X connect 0 0 2 0;
#X connect 1 0 0 0;
#X connect 2 0 3 0;
#X connect 2 1 4 0;
#X connect 2 2 5 0;
#X connect 2 3 6 0;
#X connect 2 4 7 0;
#X connect 2 5 8 0;
